<?xml version="1.0" encoding="utf-8"?>
<svg width="200" height="150" viewBox="0 0.5 5 5.5"
xmlns="http://www.w3.org/2000/svg"
xmlns:xlink="http://www.w3.org/1999/xlink">
  <g stroke="black" stroke-width="0.02">
    <circle cx="5" cy="5" r="0.02"></circle>
    <circle cx="2.7269323410752038" cy="5.000127018922194" r="0.02"></circle>
    <circle cx="3.636533829462396" cy="2.6384073182274994" r="0.02"></circle>
    <circle cx="2.5" cy="0.67" r="0.02"></circle>
    <circle cx="1.1365338294623966" cy="3.031465662850308" r="0.02"></circle>
    <circle cx="0" cy="5" r="0.02"></circle>
    <line x1="5" y1="5" x2="2.5" y2="0.67"></line>
    <line x1="3.636533829462396" y1="2.6384073182274994" x2="0"
    y2="5"></line>
    <line x1="5" y1="5" x2="0" y2="5"></line>
    <line x1="2.5" y1="0.67" x2="0" y2="5"></line>
    <line x1="2.7269323410752038" y1="5.000127018922194" x2="2.5"
    y2="0.67"></line>
    <line x1="5" y1="5" x2="1.1365338294623966" y2="3.031465662850308"></line>
  </g>
  <g fill="#00cc00" stroke="black" stroke-width="0.01">
    <circle cx="2.1982523179722118" cy="3.572438252944817" r="0.1"></circle>
    <circle cx="2.6371785794345755" cy="3.2875232248195543" r="0.1"></circle>
    <circle cx="2.6645691025932114" cy="3.810038522235628" r="0.1"></circle>
  </g>
  <g stroke="#00cc00" stroke-width="0.1">
    <line x1="2.1982523179722118" y1="3.572438252944817" x2="2.6371785794345755" y2="3.2875232248195543"></line>
    <line x1="2.6645691025932114" y1="3.810038522235628" x2="2.6371785794345755" y2="3.2875232248195543"></line>
    <line x1="2.1982523179722118" y1="3.572438252944817" x2="2.6645691025932114" y2="3.810038522235628"></line>
  </g>
</svg>
