<?xml version="1.0" encoding="UTF-8"?><svg width="200" height="150" viewBox="0 0 5 5.5" xmlns="http://www.w3.org/2000/svg" xmlns:xlink="http://www.w3.org/1999/xlink"><g stroke="black" stroke-width="0.05"><line x1="3.75" y1="2.834936490538904" x2="0" y2="5"></line><line x1="5" y1="5" x2="1.25" y2="2.834936490538904"></line><line x1="5" y1="5" x2="2.5" y2="0.67"></line><line x1="2.5" y1="0.67" x2="0" y2="5"></line><line x1="5" y1="5" x2="0" y2="5"></line><line x1="0" x2="2.4999999999999996" y1="5" y2="3.5566243270259363" stroke="blue" stroke-width="0.1"></line><line x1="2.4999999999999996" x2="1.25" y1="3.5566243270259363" y2="2.834936490538904" stroke="blue" stroke-width="0.1"></line><line x1="1.25" x2="0" y1="2.834936490538904" y2="5" stroke="blue" stroke-width="0.1"></line><line x1="5" x2="2.4999999999999996" y1="5" y2="3.5566243270259363" stroke="green" stroke-width="0.1"></line><line x1="2.4999999999999996" x2="3.75" y1="3.5566243270259363" y2="2.834936490538904" stroke="green" stroke-width="0.1"></line><line x1="3.75" x2="5" y1="2.834936490538904" y2="5" stroke="green" stroke-width="0.1"></line><line x1="0" x2="2.4999999999999996" y1="5" y2="3.5566243270259363" stroke="red" stroke-width="0.1"></line><line x1="2.4999999999999996" x2="5" y1="3.5566243270259363" y2="5" stroke="red" stroke-width="0.1"></line><line x1="5" x2="0" y1="5" y2="5" stroke="red" stroke-width="0.1"></line><g><circle cx="0" cy="5" r="0.5"></circle><text x="0" y="5" font-size="0.75" stroke-width="0.01" stroke="white" fill="white" text-anchor="middle" alignment-baseline="middle">a</text></g><g><circle cx="1.25" cy="2.834936490538904" r="0.5"></circle><g><text x="1.1" y="2.834936490538904" font-size="0.75" stroke-width="0.01" stroke="white" fill="white" text-anchor="middle" alignment-baseline="middle">x</text><text x="1.4" y="2.734936490538904" font-size="0.5" stroke-width="0.01" stroke="white" fill="white" text-anchor="middle" alignment-baseline="middle">b</text></g></g><g><circle cx="2.4999999999999996" cy="3.5566243270259363" r="0.5"></circle><text x="2.4999999999999996" y="3.5566243270259363" font-size="0.75" stroke-width="0.01" stroke="white" fill="white" text-anchor="middle" alignment-baseline="middle">y</text></g><g><circle cx="2.5" cy="0.67" r="0.5"></circle><text x="2.5" y="0.67" font-size="0.75" stroke-width="0.01" stroke="white" fill="white" text-anchor="middle" alignment-baseline="middle">c</text></g><g><circle cx="3.75" cy="2.834936490538904" r="0.5"></circle><g><text x="3.6" y="2.834936490538904" font-size="0.75" stroke-width="0.01" stroke="white" fill="white" text-anchor="middle" alignment-baseline="middle">x</text><text x="3.9" y="2.734936490538904" font-size="0.5" stroke-width="0.01" stroke="white" fill="white" text-anchor="middle" alignment-baseline="middle">a</text></g></g><g><circle cx="5" cy="5" r="0.5"></circle><text x="5" y="5" font-size="0.75" stroke-width="0.01" stroke="white" fill="white" text-anchor="middle" alignment-baseline="middle">b</text></g></g></svg>