<?xml version="1.0" encoding="UTF-8"?><svg width="200" height="150" viewBox="0 0 5 5.5" xmlns="http://www.w3.org/2000/svg" xmlns:xlink="http://www.w3.org/1999/xlink"><g stroke="black" stroke-width="0.05"><line x1="4.131759111665349" y1="3.4961626681956472" x2="0" y2="5"></line><line x1="3.368240888334652" y1="2.17371031288216" x2="0" y2="5"></line><line x1="5" y1="5" x2="2.5" y2="0.67"></line><line x1="2.5" y1="0.67" x2="0" y2="5"></line><line x1="5" y1="5" x2="0" y2="5"></line><line x1="5" y1="5" x2="1.25" y2="2.834936490538904"></line><line x1="0" x2="2.038018672739761" y1="5" y2="3.289899283371657" stroke="blue" stroke-width="0.1"></line><line x1="2.038018672739761" x2="3.066703992264193" y1="3.289899283371657" y2="3.883811029510504" stroke="blue" stroke-width="0.1"></line><line x1="3.066703992264193" x2="0" y1="3.883811029510504" y2="5" stroke="blue" stroke-width="0.1"></line><g><circle cx="0" cy="5" r="0.4"></circle><text x="0" y="5" font-size="0.75" stroke-width="0.01" stroke="white" fill="white" text-anchor="middle" alignment-baseline="middle">a</text></g><g><circle cx="1.25" cy="2.834936490538904" r="0.0"></circle><text x="1.25" y="2.834936490538904" font-size="0.75" stroke-width="0.01" stroke="white" fill="white" text-anchor="middle" alignment-baseline="middle"></text></g><g><circle cx="2.038018672739761" cy="3.289899283371657" r="0.4"></circle><g><text x="1.888018672739761" y="3.289899283371657" font-size="0.75" stroke-width="0.01" stroke="white" fill="white" text-anchor="middle" alignment-baseline="middle">y</text><text x="2.188018672739761" y="3.0898992833716568" font-size="0.5" stroke-width="0.01" stroke="white" fill="white" text-anchor="middle" alignment-baseline="middle">a</text><text x="2.188018672739761" y="3.489899283371657" font-size="0.4" stroke-width="0.01" stroke="white" fill="white" text-anchor="middle" alignment-baseline="middle">1</text></g></g><g><circle cx="2.5" cy="0.67" r="0.4"></circle><text x="2.5" y="0.67" font-size="0.75" stroke-width="0.01" stroke="white" fill="white" text-anchor="middle" alignment-baseline="middle">c</text></g><g><circle cx="3.066703992264193" cy="3.883811029510504" r="0.4"></circle><g><text x="2.916703992264193" y="3.883811029510504" font-size="0.75" stroke-width="0.01" stroke="white" fill="white" text-anchor="middle" alignment-baseline="middle">y</text><text x="3.216703992264193" y="3.6838110295105038" font-size="0.5" stroke-width="0.01" stroke="white" fill="white" text-anchor="middle" alignment-baseline="middle">a</text><text x="3.216703992264193" y="4.083811029510504" font-size="0.4" stroke-width="0.01" stroke="white" fill="white" text-anchor="middle" alignment-baseline="middle">2</text></g></g><g><circle cx="3.368240888334652" cy="2.17371031288216" r="0.0"></circle><text x="3.368240888334652" y="2.17371031288216" font-size="0.75" stroke-width="0.01" stroke="white" fill="white" text-anchor="middle" alignment-baseline="middle"></text></g><g><circle cx="4.131759111665349" cy="3.4961626681956472" r="0.0"></circle><text x="4.131759111665349" y="3.4961626681956472" font-size="0.75" stroke-width="0.01" stroke="white" fill="white" text-anchor="middle" alignment-baseline="middle"></text></g><g><circle cx="5" cy="5" r="0.4"></circle><text x="5" y="5" font-size="0.75" stroke-width="0.01" stroke="white" fill="white" text-anchor="middle" alignment-baseline="middle">b</text></g></g></svg>