<?xml version="1.0" encoding="utf-8"?>
<svg width="400" height="300" viewBox="0 0.25 5 5.25"
     xmlns="http://www.w3.org/2000/svg"
     xmlns:xlink="http://www.w3.org/1999/xlink">
  <g stroke="black" stroke-width="0.02">
    <line x1="5" y1="5" x2="1.8301270189221936"
          y2="1.8301270189221936"></line>
    <line x1="2.5" y1="0.67" x2="2.499999999999999"
          y2="5.000127018922194"></line>
    <line x1="0.923962654520474" y1="5.000127018922191" x2="2.5"
          y2="0.67"></line>
    <line x1="1.7364817766693035" y1="5.000127018922194" x2="2.5"
          y2="0.67"></line>
    <line x1="0" y1="5" x2="3.75" y2="2.834936490538904"></line>
    <line x1="5" y1="5" x2="2.5" y2="0.67"></line>
    <line x1="5" y1="5" x2="1.25" y2="2.834936490538904"></line>
    <line x1="5" y1="5" x2="0.6698729810778076"
          y2="3.8397459621556123"></line>
    <line x1="5" y1="5" x2="0" y2="5"></line>
    <line x1="2.5" y1="0.67" x2="0" y2="5"></line>
    <line x1="3.2635182233306947" y1="5.000127018922194" x2="2.5"
          y2="0.67"></line>
    <line x1="4.0760373454795245" y1="5.000127018922194" x2="2.5"
          y2="0.67"></line>
  </g>
  <g stroke-width="0.005" font-size="0.4">
    <text x="-0.5" y="5.35">a=1</text>
    <text x="2.2" y="0.6">c=5</text>
    <text x="5.1" y="5.35">b=3</text>
    <text x="4" y="2.75">A</text>
    <text x="0.7" y="2.75">B</text>
    <text x="2.4" y="5.5">C</text>
  </g>
</svg>
