<?xml version="1.0" encoding="UTF-8"?><svg width="200" height="150" viewBox="0 0 5 5.5" xmlns="http://www.w3.org/2000/svg" xmlns:xlink="http://www.w3.org/1999/xlink"><g stroke="black" stroke-width="0.05"><line x1="2.5" y1="0.67" x2="0" y2="5"></line><line x1="5" y1="5" x2="2.5" y2="0.67"></line><line x1="4.131759111665349" y1="3.4961626681956472" x2="0" y2="5"></line><line x1="5" y1="5" x2="0" y2="5"></line><line x1="3.368240888334652" y1="2.17371031288216" x2="0" y2="5"></line><line x1="0" x2="3.368240888334652" y1="5" y2="2.17371031288216" stroke="blue" stroke-width="0.1"></line><line x1="3.368240888334652" x2="4.131759111665349" y1="2.17371031288216" y2="3.4961626681956472" stroke="blue" stroke-width="0.1"></line><line x1="4.131759111665349" x2="0" y1="3.4961626681956472" y2="5" stroke="blue" stroke-width="0.1"></line><g><circle cx="0" cy="5" r="0.5"></circle><text x="0" y="5" font-size="0.75" stroke-width="0.01" stroke="white" fill="white" text-anchor="middle" alignment-baseline="middle">a</text></g><g><circle cx="2.5" cy="0.67" r="0.5"></circle><text x="2.5" y="0.67" font-size="0.75" stroke-width="0.01" stroke="white" fill="white" text-anchor="middle" alignment-baseline="middle">c</text></g><g><circle cx="3.368240888334652" cy="2.17371031288216" r="0.5"></circle><g><text x="3.2182408883346523" y="2.17371031288216" font-size="0.75" stroke-width="0.01" stroke="white" fill="white" text-anchor="middle" alignment-baseline="middle">x</text><text x="3.518240888334652" y="1.97371031288216" font-size="0.5" stroke-width="0.01" stroke="white" fill="white" text-anchor="middle" alignment-baseline="middle">a</text><text x="3.518240888334652" y="2.37371031288216" font-size="0.4" stroke-width="0.01" stroke="white" fill="white" text-anchor="middle" alignment-baseline="middle">1</text></g></g><g><circle cx="4.131759111665349" cy="3.4961626681956472" r="0.5"></circle><g><text x="3.981759111665349" y="3.4961626681956472" font-size="0.75" stroke-width="0.01" stroke="white" fill="white" text-anchor="middle" alignment-baseline="middle">x</text><text x="4.281759111665349" y="3.296162668195647" font-size="0.5" stroke-width="0.01" stroke="white" fill="white" text-anchor="middle" alignment-baseline="middle">a</text><text x="4.281759111665349" y="3.6961626681956474" font-size="0.4" stroke-width="0.01" stroke="white" fill="white" text-anchor="middle" alignment-baseline="middle">2</text></g></g><g><circle cx="5" cy="5" r="0.5"></circle><text x="5" y="5" font-size="0.75" stroke-width="0.01" stroke="white" fill="white" text-anchor="middle" alignment-baseline="middle">b</text></g></g></svg>